<svg xmlns="http://www.w3.org/2000/svg" viewBox="0 0 654 737.63"><defs><style>.cls-1{font-size:69.82px;font-family:PartyLetPlain, Party LET;}.cls-1,.cls-2{fill:#fff;}.cls-3{fill:#662d91;}.cls-4{fill:blue;}.cls-5{fill:lime;}.cls-6{fill:#fcee21;}.cls-7{fill:#f7931e;}.cls-8{fill:red;}</style></defs><g id="Layer_2" data-name="Layer 2"><g id="Layer_1-2" data-name="Layer 1"><text class="cls-1" transform="translate(127.43 531.19)">PROUD BOY<tspan x="155.16" y="83.79">OF</tspan><tspan x="20.3" y="167.58">NEW YORK</tspan></text><g id="HYDK30"><path class="cls-2" d="M403.79,300.89c4.75,2,9.24,4.3,12.73,8.18a4.85,4.85,0,0,1,.69,2c1.49,6,3,11.95,4.42,17.93.08.31.21.61.46,1.32.93-9.57.1-18.46-3.93-26.89l.34-.21c1.13,1.59,2.38,3.1,3.36,4.78s1.67,3.5,2.52,5.3a28.53,28.53,0,0,0,.43-10.89,69.54,69.54,0,0,0-1.84-7,2.93,2.93,0,0,0-2.27-1.95c-2.19-.67-4.35-1.43-6.52-2.16-.43-.14-.85-.33-1.28-.49l0-.54a5.72,5.72,0,0,1,2,0c3.34,1.31,6.66,2.71,10,4.12a2,2,0,0,1,.77.78A42.16,42.16,0,0,1,431.61,308c.71,2.67,1.08,5.42,1.88,8.18a37.76,37.76,0,0,0,.86-4.78c.21-3.76.33-7.47,1.8-11.05a33.07,33.07,0,0,0,1.3-5.75,5.91,5.91,0,0,1,2.49,3.78c.74,4.32,1.71,8.6,2.59,12.94,1.23-2.4,2-8.62-.89-21.18l1,.82c-.7-2.1-1.5-4.14-2-6.24s-.82-4.15-1.21-6.23l.48-.13c.35.85.69,1.71,1.07,2.56q3.78,8.58,7.55,17.16a2.91,2.91,0,0,1,.09,1.35,38.43,38.43,0,0,0,4.27,23c.13.24.3.47.59.9-.38-2.24-.87-4.23-1-6.25a47.3,47.3,0,0,1,0-6.3c.11-2.09.42-4.18.65-6.4l1.67,1c-1-8.74-.55-17.29-.13-25.84l.45-.08a58.12,58.12,0,0,1,4.46,7.1c.66,1.46.34,3.38.38,5.1,0,2.13,0,4.28,0,6.42l.56,0,2.61-10.63.29.05v11.2l.24.06,2.5-5.67.38,2,.19,0,.51-3.26c.18,6.41.83,12.63,5,17.92l-1.32-8.91.2-.05a29,29,0,0,0,2.19,3.6,12.54,12.54,0,0,0,3,2.74c5.91,3.7,12.39,4.27,19.09,3a33.37,33.37,0,0,0,4.65-1.55l-.12-.37c-2.25-.31-4.53-.51-6.76-1a18.05,18.05,0,0,1-9-4.66,6.18,6.18,0,0,1-1.78-4.37c-.36-4.57-.58-9.15-.95-13.72-1.11-13.85-3-27.54-8.43-40.48-3.93-9.4-9.48-17.56-18.26-23.14a41.54,41.54,0,0,0-19.61-6.16,71.35,71.35,0,0,0-18.09,1.37,3,3,0,0,1-1.65-.06c-7.08-3.21-14.06-2.41-21,.51A52.93,52.93,0,0,0,377,229c-8.87,9.14-15.44,19.67-18.64,32.09-.76,3-.85,6.14-1.47,9.17-.52,2.54.34,5,.38,7.55a32.43,32.43,0,0,0-4.6-.82c-5.86-.25-11.73-.49-17.6-.5-4.63,0-9.26.39-13.9.49a4.76,4.76,0,0,1-4.36-2.17c-2.8-4.13-7.07-6.12-11.64-7.65-3.7-1.23-7.46-2.36-10.73-4.65a4.15,4.15,0,0,1-1.92-2.95,15.9,15.9,0,0,0-3.92-8.31,1.51,1.51,0,0,1-.44-1c.56-4.79-.7-9.33-2.13-13.77-2.87-8.9-6-17.72-9-26.58-.22-.66-.39-1.34-.48-1.66a31.69,31.69,0,0,0,5.82.8c3.18-.14,4.91-2.63,6.26-5.09.94-1.71,1.23-3.78,1.78-5.7.37-1.28.61-2.59,1.05-3.85a5,5,0,0,1,3.3-3c.66-.26,1.35-.44,2.13-.68-.79-1.43-1.25-3.12-2.35-4.08a6.6,6.6,0,0,0-5.64-1.85l-4.62.88,3.83-5.7c-2.11-1-4.9-.44-11.06,2.41a8.8,8.8,0,0,1,5.2-7.45,9,9,0,0,0-6.13-.08c-1.88.5-3.71,1.18-5.68,1.82-.6-3.33.24-6,3.08-8.07-4.44-.52-9.45,2.14-13.32,7.12v-3.49l-3.59,3.85c-1.13-1.9-.94-3.82-.8-5.55-1.65,1.49-3.32,3.1-5.09,4.58a6.5,6.5,0,0,1-4.87,1.6,11.45,11.45,0,0,0-7.86,2.6c-2.07,1.6-2.52,3.9-2.22,6.3a13.19,13.19,0,0,0,3.41,7.57,2.44,2.44,0,0,1-3,.37c-7.75-3.15-15.53-2.77-23.33.24l4.91,1a23.13,23.13,0,0,1,10.5,5c2.36,2,4,4.3,4.19,7.64-2.84.61-6.05.12-8.75,2.13l1.49.7a34,34,0,0,0-9.81,7.21l19.9-.85a50.31,50.31,0,0,0-4,3.64c-1.83,2.07-3.65,4-6.56,4.58a7.22,7.22,0,0,0-2.88,2,4.49,4.49,0,0,0-.8,5.39,8,8,0,0,0,1.73,1.54,8.44,8.44,0,0,0-4.27,6.07c-.75,4.54,0,8.88,2.91,12.44,2.47,3,6,3.66,9.8,2.87,1.11-.23,2.18-.63,3.68-1.08-5.49,5.25-11.81,9.2-15,16.54l4.24-2.91.36.13c-.4,1.66-.68,3.36-1.22,5-1.88,5.66-3.84,11.29-5.78,16.93-1.88,5.46-2.19,11.13-2.28,16.82a45.3,45.3,0,0,0,.83,10.82c.73,3.26,2.71,5.67,4.67,8.1,4.24,5.23,8.53,10.43,12.94,15.53,8.27,9.56,17.08,18.58,27.44,25.94A70.13,70.13,0,0,0,283,377.85a44.93,44.93,0,0,0,22.94.27c4.56-1.11,9.2-1.89,13.91-1.06,1.61.29,3.18.8,4.77,1.21l.07.43a34.43,34.43,0,0,1-3.3,1.83A55.73,55.73,0,0,1,300,384.69a3.47,3.47,0,0,0-2.2.91c-1.75,1.74-3.31,3.67-5,5.45a59.49,59.49,0,0,0-10.39,14.68c-1.3,2.59-1.53,5.25.37,7.82.88,1.21,1.5,2.61,2.43,3.86l-.5-2.9,6.29-.39,1.63.87c-.32,2.45,2,2.59,3.68,3.51,0-.23,0-.32,0-.37-2.13-2.38-2.12-2.38-.58-5.16.59-1.07,1.17-2.15,1.73-3.24a1.35,1.35,0,0,0,.1-.8c-.64-4.16.23-8.17,1.28-12.16.2-.75.55-1.12,1.39-1.06s1.9,0,3.08,0c-.08,1.42-.26,2.74-.2,4a3,3,0,0,0,.81,1.91c.72.67.77,1.1,0,1.71a9.29,9.29,0,0,0-1.82,1.92c1.22-.53,2.45-1,3.66-1.61a1,1,0,0,0,.4-.69c.4-2.64.92-5.28,1.06-7.94.06-1.13-.7-2.3-1.06-3.39,3.22-.46,6.7-.48,9.84-1.52,4.95-1.66,9.47-.41,14.1.9.78.22,1.57.42,2.35.62a1.67,1.67,0,0,0,.41-.05l-5.52-4.47c3.66-1.43,7.1-2.8,10.57-4.1a2.41,2.41,0,0,1,1.37.19c2.83.85,5.65,1.72,8.48,2.59a6.69,6.69,0,0,0-.31,1.49,30.33,30.33,0,0,1-2.72,12.18c-.52,1.25-.51,2.71-.93,4-1.35,4.21-2.58,8.49-4.27,12.57a67.52,67.52,0,0,1-4.9,9.14,9.58,9.58,0,0,1-2.77,2.64,2,2,0,0,0-1,1.86c.15,2.54-.76,3.95-3.37,5.14a76,76,0,0,1-30.25,6.51c-1,0-1.62.24-1.93,1.24a23.74,23.74,0,0,1-1,2.34c.82-.57,1.27-.92,1.75-1.21s1-.53,1.71-.87c-.59,3.37-.59,3.37-3.71,2.82-.38,1-.76,2-1.15,3.06l.3.17L294.8,447c-.09,3.49,2.45,2.26,4.26,2.58-.88,1.95-3.5,2.67-3.09,5.51,1.14-2.58,2.89-1.72,4.59-1.22a4.62,4.62,0,0,0,1.56.2c5.95-.45,11.94-.67,17.84-1.5A148.55,148.55,0,0,0,337.3,449a9.05,9.05,0,0,1,6.6.27,62.08,62.08,0,0,0,8.43,2.66,1.65,1.65,0,0,0,1.38-.51c1.26-1.46,2.27-1.55,3.65-.15.42.42.78.91,1.17,1.37l.26-.24c-.41-.95-.8-1.9-1.23-2.84-.1-.2-.3-.46-.49-.49-1.75-.27-2.07-1.79-2.67-3-.94-1.92-1.11-2.18-3.17-1.68-3.07.76-5.07-.59-6.8-2.85a2.14,2.14,0,0,0-.9-.67c-1.31-.49-1.42-1.32-1-2.58a34.09,34.09,0,0,1,5.75-10.49,3,3,0,0,1,1.31-.78,41.67,41.67,0,0,0,10.37-6.32l-8.77,1.3c.45-2.39.75-4.6,1.27-6.75,2-8.24,4-16.5,6.16-24.7.74-2.84.13-2.39,3.29-2.14,6.88.55,13.55-.12,19.82-3.22a7.09,7.09,0,0,1,4-.66,55.71,55.71,0,0,0,15.84-.55,3.18,3.18,0,0,0,.56-.17c-3-.56-6.31-1-9.52-1.85s-6.36-2.11-9.53-3.19l.1-.34,14.51-2.05a7.58,7.58,0,0,0-.77-1.38c-1.6-1.87-3.46-2.93-6.11-2.32a18.22,18.22,0,0,1-4.05.05l0-.37,15.63-4.94-9.37,1c-.81.09-1.62.25-2.42.26a2.38,2.38,0,0,1-1.35-.52c4.25-1.4,8.42-2.79,12.32-5.39-2.74.32-5.21.75-7.7.87-2.76.14-5.53,0-8.3-.06a6.27,6.27,0,0,1-1.85-.67l.1-.47L403.27,361v-.21l-8.9-.64,5.74-2,0-.39c-1.11,0-2.21.06-3.31,0a1.53,1.53,0,0,1-1.11-.59c-1.45-3.06-2.83-6.16-4.22-9.25,0-.06.05-.17.1-.36l4.13,5,.29-.06c-.15-1.51-.31-3-.5-4.81l1.22,1.75.2-.08c-.69-2.68-1.39-5.36-2.17-8.38,4.23,3.36,5.31,7.75,5.77,12.46l.21-2.29L401,351l1.35,4.84.37,0c.27-2.26.61-4.52.78-6.79.26-3.28.42-6.57.57-9.87a27.42,27.42,0,0,0-3.91-16.3c-2.15-3.4-4.41-6.71-6.62-10.06l-.45-.75c1.41-.77,2.4,0,3.37.75A36.83,36.83,0,0,1,404.86,323a1.11,1.11,0,0,0,.71.59l-3.13-8.86c5.4,4,9.72,8.32,12,14.53.71-3.84-.07-9.78-2.17-16.8l3.72,3.86.3-.29A78.13,78.13,0,0,0,403.79,300.89Z"/></g><rect class="cls-2" x="164.73" y="452.25" width="363" height="6"/><g id="WVhT8s"><path class="cls-2" d="M146.25,428.32a18.54,18.54,0,0,1,28.55,13.84,17.92,17.92,0,0,1-7.14,16,3.24,3.24,0,0,0-1.14,1.68,18.4,18.4,0,1,1-34.92-11.63c.18-.54.11-.81-.41-1.09-1.85-1-3.66-2-5.48-3.06l-4.49-2.51c.06.27.09.43.13.59.46,1.65.93,3.29,1.37,4.94,0,.19,0,.59-.12.62-1.33.43-2.68.8-4.08,1.2l-3.86-13.62,13.6-3.84,1.21,4.34-6.07,1.77,10.44,5.86c1.37-1.3,2.69-2.54,4-3.81a3.27,3.27,0,0,0,.83-1.22,20.44,20.44,0,0,1,2.29-4.84c.29-.44.6-.87.89-1.3l-.27.19-8.37-8.6V430h-4.47V416h14.09v4.51h-6.07l8.35,8.59C145.54,428.8,145.89,428.55,146.25,428.32Zm8.68,29.09a14.68,14.68,0,0,0,7.14-1.1,1.09,1.09,0,0,0,.73-1.06,14,14,0,0,0-12.46-14.69,13.64,13.64,0,0,0-7.18,1.14c-.46.2-.73.45-.69,1s0,.85,0,1.28A13.82,13.82,0,0,0,154.93,457.41Zm-18.7,2.25a13.26,13.26,0,0,0,12.26,8.55c5.3.25,9.32-2.16,12.26-6.56a18.94,18.94,0,0,1-14.84-2.86,18.68,18.68,0,0,1-8-12.8C134.91,450.25,134.17,454.86,136.23,459.66Zm23.25-20.39a18.41,18.41,0,0,1,7.8,12.88,13.42,13.42,0,0,0,2.4-12.57,14,14,0,0,0-12.47-9.69c-6-.33-10.81,3.18-12.59,6.49A18.49,18.49,0,0,1,159.48,439.27Z"/></g><polygon class="cls-2" points="481.51 437.25 472.66 437.25 459.34 452.62 464.92 457.25 481.51 437.25"/><polygon class="cls-2" points="495.97 437.25 487.12 437.25 473.79 452.62 479.38 457.25 495.97 437.25"/><polygon class="cls-2" points="510.43 437.25 501.57 437.25 488.25 452.62 493.83 457.25 510.43 437.25"/><polygon class="cls-2" points="524.88 437.25 516.03 437.25 502.71 452.62 508.29 457.25 524.88 437.25"/><polygon class="cls-2" points="539.34 437.25 530.49 437.25 517.16 452.62 522.75 457.25 539.34 437.25"/><polygon class="cls-2" points="481.51 473.25 472.66 473.25 459.34 457.88 464.92 453.25 481.51 473.25"/><polygon class="cls-2" points="495.97 473.25 487.12 473.25 473.79 457.88 479.38 453.25 495.97 473.25"/><polygon class="cls-2" points="510.43 473.25 501.57 473.25 488.25 457.88 493.83 453.25 510.43 473.25"/><polygon class="cls-2" points="524.88 473.25 516.03 473.25 502.71 457.88 508.29 453.25 524.88 473.25"/><polygon class="cls-2" points="539.34 473.25 530.49 473.25 517.16 457.88 522.75 453.25 539.34 473.25"/><path class="cls-3" d="M327,142.87c101.53,0,184.13,82.6,184.13,184.13h24c0-114.76-93.37-208.13-208.13-208.13S118.87,212.24,118.87,327h24C142.87,225.47,225.47,142.87,327,142.87Z"/><path class="cls-4" d="M327,119.09c114.64,0,207.91,93.27,207.91,207.91h24a231.91,231.91,0,0,0-463.82,0h24C119.09,212.36,212.36,119.09,327,119.09Z"/><path class="cls-5" d="M163.18,163.18A231.68,231.68,0,0,1,558.68,327h24A255.68,255.68,0,0,0,146.21,146.21,254,254,0,0,0,71.32,327h24A230.16,230.16,0,0,1,163.18,163.18Z"/><path class="cls-6" d="M146.37,146.37A255.45,255.45,0,0,1,582.45,327h24A279.45,279.45,0,0,0,129.4,129.4,277.63,277.63,0,0,0,47.55,327h24A253.78,253.78,0,0,1,146.37,146.37Z"/><path class="cls-7" d="M129.56,129.56A279.23,279.23,0,0,1,606.23,327h24A303.22,303.22,0,0,0,112.59,112.59,301.21,301.21,0,0,0,23.77,327h24A277.4,277.4,0,0,1,129.56,129.56Z"/><path class="cls-8" d="M112.75,112.75A303,303,0,0,1,630,327h24A327,327,0,0,0,95.78,95.78,324.83,324.83,0,0,0,0,327H24A301,301,0,0,1,112.75,112.75Z"/></g></g></svg>